<?xml version="1.0" standalone="no"?>
<!DOCTYPE svg PUBLIC "-//W3C//DTD SVG 20010904//EN"
 "http://www.w3.org/TR/2001/REC-SVG-20010904/DTD/svg10.dtd">
<svg version="1.0" xmlns="http://www.w3.org/2000/svg"
 width="512.000000pt" height="512.000000pt" viewBox="0 0 512.000000 512.000000"
 preserveAspectRatio="xMidYMid meet">
<metadata>
Created by potrace 1.14, written by Peter Selinger 2001-2017
</metadata>
<g transform="translate(0.000000,512.000000) scale(0.100000,-0.100000)"
fill="#000000" stroke="none">
<path d="M2305 5110 c-595 -63 -1130 -317 -1550 -735 -414 -411 -664 -926
-739 -1515 -19 -154 -15 -515 8 -665 76 -498 293 -968 617 -1332 56 -62 84
-91 211 -209 152 -142 390 -302 593 -398 142 -68 359 -149 456 -170 200 -45
225 -50 314 -61 28 -4 77 -10 109 -14 59 -8 454 -6 511 2 17 3 50 8 75 11 215
32 494 108 649 178 643 287 1118 770 1373 1398 58 141 123 363 142 480 3 19 8
49 11 65 24 141 30 218 30 410 0 99 -3 214 -7 255 -60 601 -325 1153 -759
1581 -400 395 -928 647 -1493 713 -122 14 -440 17 -551 6z"/>
</g>
</svg>
